<?xml version="1.0" standalone="no"?>
<!DOCTYPE svg PUBLIC "-//W3C//DTD SVG 20010904//EN"
 "http://www.w3.org/TR/2001/REC-SVG-20010904/DTD/svg10.dtd">
<svg version="1.0" xmlns="http://www.w3.org/2000/svg"
 width="260.000000pt" height="260.000000pt" viewBox="0 0 260.000000 260.000000"
 preserveAspectRatio="xMidYMid meet">
<metadata>
Created by potrace 1.11, written by Peter Selinger 2001-2013
</metadata>
<g transform="translate(0.000000,260.000000) scale(0.100000,-0.100000)"
fill="#000000" stroke="none">
<path d="M990 1670 c14 -5 82 -12 153 -15 70 -4 130 -11 133 -16 3 -5 -12 -9
-33 -9 -83 -1 -224 -29 -303 -60 -25 -10 -58 -21 -75 -25 -40 -9 -157 -127
-149 -150 5 -11 14 -15 30 -11 18 5 27 -1 44 -28 18 -31 21 -50 21 -163 1
-109 -3 -142 -25 -223 -40 -143 -40 -146 -22 -153 12 -5 23 3 38 29 11 19 22
34 23 32 1 -2 5 -35 8 -75 l6 -71 -39 -26 c-22 -14 -70 -53 -106 -86 -36 -33
-76 -62 -88 -65 -35 -8 -69 -13 -96 -14 -17 -1 -21 -4 -12 -10 12 -7 -4 -17
-128 -76 -14 -6 -24 -19 -23 -29 0 -10 -4 -15 -12 -12 -7 2 -12 -3 -11 -12 1
-11 -6 -16 -17 -15 -13 1 -17 -4 -13 -14 4 -9 2 -21 -2 -27 -5 -6 -12 -31 -15
-55 -3 -24 -10 -47 -15 -50 -5 -3 -12 -23 -16 -43 -4 -20 -10 -38 -14 -40 -11
-5 -42 -100 -42 -130 l0 -28 1100 0 c605 0 1100 4 1100 8 0 5 -7 31 -15 58 -8
27 -15 67 -15 89 -1 49 -44 153 -106 254 -48 78 -126 153 -187 180 -99 44
-117 54 -117 66 0 8 7 18 16 23 20 11 10 52 -13 52 -9 0 -13 3 -10 7 4 3 3 11
-3 18 -9 11 11 87 29 110 16 21 7 47 -26 72 -31 24 -32 27 -18 43 19 21 19 39
0 46 -8 4 -15 14 -15 23 0 9 -6 23 -12 30 -10 11 -10 14 0 18 6 3 12 14 12 26
0 12 9 41 20 64 12 27 15 45 9 49 -6 4 -1 16 13 32 13 14 17 22 11 18 -7 -4
-13 -2 -13 4 0 6 -10 4 -25 -6 -23 -15 -25 -15 -31 0 -4 9 -4 34 0 54 3 21 1
51 -3 67 -5 17 -10 24 -10 16 -1 -7 -7 -11 -15 -8 -11 5 -16 -8 -22 -51 -4
-31 -6 -61 -4 -67 7 -22 6 -126 -2 -131 -4 -3 -6 -9 -3 -14 11 -18 -19 -22
-31 -5 -21 28 -27 12 -11 -27 8 -19 14 -53 14 -76 0 -34 -3 -42 -18 -42 -20 0
-26 -24 -9 -35 6 -3 10 -15 10 -26 0 -11 7 -22 15 -25 8 -4 15 -17 15 -29 0
-26 -50 -58 -76 -48 -10 4 -14 -3 -14 -26 0 -32 -6 -37 -28 -23 -15 10 -6 67
15 83 20 18 43 76 43 113 0 17 -10 79 -22 138 -20 97 -21 113 -9 172 23 113
-17 186 -145 265 -54 33 -203 85 -304 107 -71 15 -334 19 -290 4z m462 -384
c24 -28 19 -55 -14 -79 -23 -17 -33 -19 -55 -11 -34 12 -41 49 -18 93 13 27
20 30 43 25 15 -4 35 -16 44 -28z m-352 4 c11 -11 20 -30 20 -42 0 -33 -38
-68 -76 -68 -35 0 -49 12 -56 52 -5 24 -2 27 26 30 26 2 30 7 28 26 -4 29 30
30 58 2z m-23 -366 c-3 -4 -18 -4 -32 0 -19 5 -25 13 -25 34 0 15 6 34 12 40
10 10 17 5 32 -27 11 -23 17 -43 13 -47z m341 51 c18 -39 15 -52 -13 -57 -31
-6 -38 3 -29 39 12 52 24 57 42 18z"/>
<path d="M10 330 c8 -5 20 -10 25 -10 6 0 3 5 -5 10 -8 5 -19 10 -25 10 -6 0
-3 -5 5 -10z"/>
<path d="M60 310 c8 -5 20 -10 25 -10 6 0 3 5 -5 10 -8 5 -19 10 -25 10 -5 0
-3 -5 5 -10z"/>
<path d="M100 297 c0 -7 112 -49 117 -43 2 2 -15 11 -39 19 -24 8 -51 18 -60
22 -10 4 -18 5 -18 2z"/>
<path d="M2460 15 l-55 -13 95 -1 c86 0 93 1 76 14 -23 17 -41 17 -116 0z"/>
</g>
</svg>
